<svg xmlns="http://www.w3.org/2000/svg" viewBox="0 0 240 240">
  <rect fill="#ffffff" width="240" height="240" />

  <g id="frame">
    <rect fill="none" stroke="#003366" stroke-width="3" x="12" y="12" width="216" height="216" />
    <rect fill="none" stroke="#003366" stroke-width="1.5" x="18" y="18" width="204" height="204" />
    <rect fill="none" stroke="#003366" stroke-width="1.5" x="24" y="24" width="192" height="192" />

    <rect fill="#003366" x="12" y="12" width="12" height="12" />
    <rect fill="#003366" x="216" y="12" width="12" height="12" />
    <rect fill="#003366" x="12" y="216" width="12" height="12" />
    <rect fill="#003366" x="216" y="216" width="12" height="12" />
  </g>

  <g transform="translate(20, 20)">

    <path fill="none" stroke="#003366" stroke-width="3" stroke-linecap="round" stroke-linejoin="round" d="M 30 100 C 10 90, 10 50, 40 40 C 60 30, 50 60, 30 70 C 20 75, 20 90, 35 110" />
    <path fill="#003366" d="M 40 40 C 45 35, 55 35, 50 45 C 45 55, 35 45, 40 40 Z" />
    <path fill="none" stroke="#003366" stroke-width="3" stroke-linecap="round" stroke-linejoin="round" d="M 35 110 C 50 130, 20 160, 40 170" />

    <path fill="none" stroke="#003366" stroke-width="3" stroke-linecap="round" stroke-linejoin="round" d="M 90 90 C 120 60, 160 70, 150 100 C 140 130, 110 110, 120 90 C 125 80, 140 75, 155 75" />
    <path fill="#003366" d="M 155 75 C 165 70, 170 85, 160 85 C 150 85, 145 80, 155 75 Z" />
    <path fill="none" stroke="#003366" stroke-width="3" stroke-linecap="round" stroke-linejoin="round" d="M 120 90 C 110 80, 110 65, 125 55" />
    <path fill="#003366" d="M 125 55 C 135 45, 145 55, 135 65 C 125 75, 120 60, 125 55 Z" />

    <path fill="#0071E3" d="M 25 30 L 110 30 L 110 40 C 95 40, 90 45, 90 60 L 90 160 C 90 175, 135 165, 175 110 C 185 125, 195 155, 185 185 C 130 178, 80 178, 15 185 C 15 175, 20 165, 25 160 C 35 165, 45 170, 50 145 L 50 60 C 50 45, 40 40, 25 40 Z" />

    <path fill="#003366" d="M 70 50 L 74 58 L 70 60 L 66 58 Z" />
    <path fill="#003366" d="M 70 70 L 74 62 L 70 60 L 66 62 Z" />
    <path fill="#003366" d="M 60 60 L 68 56 L 70 60 L 68 64 Z" />
    <path fill="#003366" d="M 80 60 L 72 56 L 70 60 L 72 64 Z" />
    <circle cx="70" cy="60" r="1.5" fill="#ffffff" />

    <path fill="#003366" d="M 70 90 L 74 98 L 70 100 L 66 98 Z" />
    <path fill="#003366" d="M 70 110 L 74 102 L 70 100 L 66 102 Z" />
    <path fill="#003366" d="M 60 100 L 68 96 L 70 100 L 68 104 Z" />
    <path fill="#003366" d="M 80 100 L 72 96 L 70 100 L 72 104 Z" />
    <circle cx="70" cy="100" r="1.5" fill="#ffffff" />

    <path fill="#003366" d="M 70 130 L 74 138 L 70 140 L 66 138 Z" />
    <path fill="#003366" d="M 70 150 L 74 142 L 70 140 L 66 142 Z" />
    <path fill="#003366" d="M 60 140 L 68 136 L 70 140 L 68 144 Z" />
    <path fill="#003366" d="M 80 140 L 72 136 L 70 140 L 72 144 Z" />
    <circle cx="70" cy="140" r="1.5" fill="#ffffff" />
  </g>
</svg>
